<?xml version="1.0" encoding="utf-8"?>
<!-- Generator: Adobe Illustrator 17.0.0, SVG Export Plug-In . SVG Version: 6.00 Build 0)  -->
<!DOCTYPE svg PUBLIC "-//W3C//DTD SVG 1.1//EN" "http://www.w3.org/Graphics/SVG/1.1/DTD/svg11.dtd">
<svg version="1.1" id="Layer_1" xmlns="http://www.w3.org/2000/svg" xmlns:xlink="http://www.w3.org/1999/xlink" x="0px" y="0px"
	 width="165.806px" height="62.261px" viewBox="0 0 165.806 62.261" enable-background="new 0 0 165.806 62.261"
	 xml:space="preserve">
<g>
	<g>
		<path fill-rule="evenodd" clip-rule="evenodd" fill="#E1C29C" d="M151.746,0.35H14.445v8.848h137.301V0.35z M151.746,13.457
			H14.445v8.848h137.301V13.457z M151.746,29.186H14.445l-8.192,8.848h154.668L151.746,29.186z M5.27,51.141h155.651v-8.848H5.27
			V51.141z"/>
	</g>
</g>
<g>
	<g>
		<path fill-rule="evenodd" clip-rule="evenodd" fill="#454446" d="M16.166,0.219L9.175,0v20.317L0,29.273v32.987h6.991V39.978
			l9.175-9.175V0.219z M11.578,55.982h5.461V38.069h-5.461V55.982z M156.631,20.317V0l-6.991,0.219v30.584l9.175,9.175v22.283h6.991
			V29.273L156.631,20.317z M148.766,55.982h5.461V38.069h-5.461V55.982z"/>
	</g>
</g>
</svg>
