<?xml version="1.0" encoding="utf-8"?>
<!-- Generator: Adobe Illustrator 17.0.0, SVG Export Plug-In . SVG Version: 6.00 Build 0)  -->
<!DOCTYPE svg PUBLIC "-//W3C//DTD SVG 1.1//EN" "http://www.w3.org/Graphics/SVG/1.1/DTD/svg11.dtd">
<svg version="1.1" id="Layer_1" xmlns="http://www.w3.org/2000/svg" xmlns:xlink="http://www.w3.org/1999/xlink" x="0px" y="0px"
	 width="1024px" height="792px" viewBox="0 0 1024 792" enable-background="new 0 0 1024 792" xml:space="preserve">
<rect x="-26.985" y="-57.226" fill-rule="evenodd" clip-rule="evenodd" fill="#AAE0F4" width="1082.471" height="684.068"/>
<path fill-rule="evenodd" clip-rule="evenodd" fill="#C1DC88" d="M-26.985,564.976c0,0,37.962-13.808,137.933-13.808
	c146.079,0,327.751,29.149,514.249,29.149c108.894,0,271.634-24.547,338.834-24.547c56.844,0,91.455,9.205,91.455,9.205V817H-26.985
	V564.976z"/>
<path opacity="0.19" fill-rule="evenodd" clip-rule="evenodd" fill="#FFFFFF" d="M-43,510.917L67.505,267.513l135.493,239.501
	l128.006-128.207l118.997,103.056L564,313.018l135.006,215.316L899,209l159,260.306l5,235.652l-1105,3.366L-43,510.917z"/>
<path fill="#908A8A" d="M1035.479,654.799V402.598c22.126,29.751,38.534,50.672,40.937,49.981c1.421-0.408,1.175-16.61-7.448-24.768
	C1053,412.7,977.972,304.663,956.762,280.609c-27.619-31.322-53.701-45.129-82.275-46.129c-23.985-0.839-50.512-3.133-84.007,20.319
	c-19.501,13.655-41.429,48.457-49.929,62.457c-4.846,7.981-52.931,73.448-112.071,128.052c-3.301,3.048-6.636,6.061-10,9.029
	c-17.164,15.143-35.078,29.094-53,40.278c-3.335,2.081-6.669,4.065-10,5.944c-20.547,11.594-40.921,19.149-60,20.284
	c-1.97,0.117-3.927,0.174-5.868,0.152c-1.368-0.016-2.748-0.05-4.132-0.091c-20.774-0.614-43.405-4.026-67-9.049
	c-3.315-0.706-6.65-1.445-10-2.211c-18.957-4.334-38.439-9.573-58-15.13c-3.332-0.947-6.666-1.903-10-2.864
	c-17.78-5.129-35.558-10.429-53-15.457c-3.346-0.965-6.681-1.92-10-2.862c-20.779-5.893-40.97-11.26-60-15.336
	c-3.371-0.722-6.705-1.403-10-2.039c-19.231-3.715-37.11-5.903-52.975-5.692c-1.012,0.013-2.018,0.044-3.025,0.074
	c-3.362,0.101-6.695,0.294-10,0.573c-21.222,1.796-41.264,7.139-60,14.326c-3.375,1.295-6.71,2.647-10,4.052
	c-47.956,20.47-86.75,51.508-114.096,62.143c-12.755,8.116,1.159,10.436,1.159,10.436s55.307-37.612,112.937-61.995v174.927
	 M81.479,654.799V475.785c20.941-8.229,41.782-14.326,60-15.87v194.884 M151.479,654.799V459.532c16.27,0.034,35.295,2.496,56,6.488
	v188.778 M217.479,654.799V468.036c19.051,4.001,39.308,9.112,60,14.687v172.076 M287.479,654.799V485.443
	c17.61,4.829,35.433,9.908,53,14.848v154.508 M350.479,654.799V503.093c20.037,5.592,39.606,10.889,58,15.301v136.405
	 M418.479,654.799V520.728c25.51,5.781,48.371,9.543,66.494,9.543c0.168,0,0.338-0.006,0.506-0.007v124.535 M495.479,654.799
	V529.829c18.32-1.526,38.024-7.149,60-18.586v143.555 M565.479,654.799V505.716c16.313-9.504,33.868-22.138,53-38.558v187.641
	 M628.479,654.799V458.371c20.184-18.104,40.059-37.981,58-57.339v253.767 M696.479,654.799V390.073
	c20.093-22.356,37.105-43.4,48.39-59.424c4.2-5.964,8.295-12.637,12.61-19.559v343.708 M767.479,654.799V295.615
	c8.909-13.027,19.39-25.757,33.521-35.287c5.47-3.69,14.907-7.843,26.479-11.026v405.498 M837.479,654.799V246.922
	c16.249-3.272,35.215-4.269,53,0.075v407.802 M900.479,654.799V250.08c4.308,1.626,8.497,3.619,12.502,6.038
	c13.346,8.062,29.115,24.249,45.498,43.924v354.756 M968.479,654.799V312.373c9.622,12.144,19.328,25.145,28.763,38.105
	c9.758,13.404,19.319,26.501,28.237,38.605v265.715"/>
<path fill="none" d="M121.5,479.532V693h56V486.024C156.796,482.032,137.771,479.568,121.5,479.532z"/>
<path fill="none" d="M656.5,693V421.009c-17.94,19.359-37.815,39.236-58,57.343V693H656.5z"/>
<path fill="none" d="M257.5,505.452V693h53V520.3C292.934,515.361,275.11,510.281,257.5,505.452z"/>
<path fill="none" d="M187.5,488.04V693h60V502.733C226.811,497.158,206.549,492.041,187.5,488.04z"/>
<path fill="none" d="M51.5,495.777V693h60V479.914C93.283,481.454,72.442,487.548,51.5,495.777z"/>
<path fill="none" d="M727.5,693V331.057c-4.323,6.934-8.424,13.618-12.63,19.592c-11.281,16.019-28.286,37.054-48.37,59.401V693
	H727.5z"/>
<path fill="none" d="M928.5,693V320.067c-16.39-19.687-32.167-35.883-45.519-43.949c-3.998-2.415-8.18-4.405-12.481-6.03V693H928.5z
	"/>
<path fill="none" d="M797.5,693V269.295c-11.582,3.184-21.026,7.34-26.5,11.032c-14.12,9.523-24.596,22.241-33.5,35.257V693H797.5z"
	/>
<path fill="none" d="M860.5,693V267.002c-17.783-4.348-36.749-3.354-53-0.084V693H860.5z"/>
<path fill="none" d="M465.5,549.828V693h60V531.233C503.524,542.673,483.82,548.299,465.5,549.828z"/>
<path fill="none" d="M454.973,550.271c-18.12,0-40.97-3.756-66.473-9.535V693h67V550.263
	C455.325,550.264,455.148,550.271,454.973,550.271z"/>
<path fill="none" d="M995.5,693V409.112c-8.924-12.112-18.492-25.219-28.258-38.633c-9.428-12.951-19.127-25.943-28.742-38.079V693
	H995.5z"/>
<path fill="none" d="M535.5,525.704V693h53V487.14C569.368,503.561,551.813,516.198,535.5,525.704z"/>
<path fill="none" d="M320.5,523.101V693h58V538.402C360.108,533.992,340.535,528.692,320.5,523.101z"/>
<path fill="#70655C" d="M737.5,693V315.584c-3.538,5.171-6.83,10.389-10,15.473V693H737.5z"/>
<path fill="#70655C" d="M807.5,693V266.918c-3.471,0.698-6.815,1.502-10,2.377V693H807.5z"/>
<path fill="#70655C" d="M870.5,693V270.088c-3.273-1.236-6.615-2.259-10-3.086V693H870.5z"/>
<path fill="#70655C" d="M938.5,693V332.399c-3.348-4.226-6.687-8.353-10-12.332V693H938.5z"/>
<path fill="#70655C" d="M455.5,550.263V693h10V549.828C462.121,550.11,458.79,550.25,455.5,550.263z"/>
<path fill="#70655C" d="M525.5,531.233V693h10V525.704C532.116,527.676,528.78,529.526,525.5,531.233z"/>
<path fill="#70655C" d="M588.5,487.14V693h10V478.352c-1.677,1.504-3.355,2.999-5.036,4.477
	C591.797,484.296,590.144,485.729,588.5,487.14z"/>
<path fill="#70655C" d="M666.5,693V410.05c-3.257,3.624-6.592,7.281-10,10.959V693H666.5z"/>
<path fill="#70655C" d="M995.5,693h10V422.625c-3.22-4.33-6.563-8.849-10-13.514V693z"/>
<path fill="#70655C" d="M247.5,502.733V693h10V505.452C254.158,504.535,250.824,503.629,247.5,502.733z"/>
<path fill="#70655C" d="M310.5,520.3v-8.642c-17.78-5.128-35.558-10.428-53-15.456v9.25C275.11,510.281,292.934,515.361,310.5,520.3
	z"/>
<path fill="#70655C" d="M588.5,487.14v-12.822c-17.163,15.144-35.078,29.096-53,40.283v11.102
	C551.813,516.198,569.368,503.561,588.5,487.14z"/>
<path fill="#70655C" d="M1038.969,447.811C1023,432.7,947.972,324.663,926.762,300.609c-27.619-31.322-53.701-45.129-82.276-46.129
	c-23.985-0.839-50.512-3.133-84.007,20.32c-19.501,13.654-41.429,48.456-49.929,62.456c-4.845,7.98-52.92,73.432-112.051,128.032
	v13.064c20.185-18.106,40.06-37.984,58-57.343v-12.869h10v1.91c20.084-22.348,37.089-43.382,48.37-59.401
	c4.207-5.974,8.308-12.658,12.63-19.592V313.5h10v2.084c8.904-13.016,19.38-25.734,33.5-35.257
	c5.474-3.692,14.918-7.848,26.5-11.032V261h10v5.918c16.251-3.27,35.217-4.264,53,0.084V261h10v9.088
	c4.301,1.625,8.483,3.615,12.481,6.03c13.352,8.066,29.129,24.262,45.519,43.949V319h10v13.399
	c9.615,12.137,19.314,25.128,28.742,38.079c9.766,13.414,19.334,26.521,28.258,38.633v-0.971h10v14.485
	c22.115,29.736,38.514,50.643,40.916,49.953C1047.838,472.171,1047.591,455.969,1038.969,447.811z"/>
<path fill="#70655C" d="M378.5,538.402v-8.748c-18.956-4.332-38.44-9.576-58-15.132v8.58
	C340.535,528.692,360.108,533.992,378.5,538.402z"/>
<path fill="#70655C" d="M454.973,550.271c0.175,0,0.352-0.007,0.527-0.007v-9.356c-20.773-0.613-43.406-4.026-67-9.048v8.877
	C414.003,546.514,436.853,550.271,454.973,550.271z"/>
<path fill="#70655C" d="M525.5,531.233v-10.687c-20.547,11.596-40.921,19.154-60,20.295v8.987
	C483.82,548.299,503.524,542.673,525.5,531.233z"/>
<path fill="#70655C" d="M737.5,313.5h-10v17.557c3.17-5.084,6.462-10.301,10-15.473V313.5z"/>
<path fill="#70655C" d="M807.5,261h-10v8.295c3.185-0.876,6.529-1.679,10-2.377V261z"/>
<path fill="#70655C" d="M870.5,261h-10v6.002c3.385,0.828,6.727,1.85,10,3.086V261z"/>
<path fill="#70655C" d="M938.5,319h-10v1.067c3.313,3.979,6.652,8.106,10,12.332V319z"/>
<path fill="#70655C" d="M465.5,549.828v-8.987c-1.977,0.118-3.941,0.176-5.888,0.153c-1.362-0.016-2.733-0.047-4.112-0.087v9.356
	C458.79,550.25,462.121,550.11,465.5,549.828z"/>
<path fill="#70655C" d="M535.5,525.704v-11.102c-3.335,2.081-6.669,4.065-10,5.945v10.687
	C528.78,529.526,532.116,527.676,535.5,525.704z"/>
<path fill="#70655C" d="M593.464,482.829c1.68-1.478,3.359-2.973,5.036-4.477v-13.064c-3.301,3.048-6.636,6.062-10,9.03v12.822
	C590.144,485.729,591.797,484.296,593.464,482.829z"/>
<path fill="#70655C" d="M666.5,408.141h-10v12.869c3.408-3.678,6.743-7.334,10-10.959V408.141z"/>
<path fill="#70655C" d="M995.5,408.141v0.971c3.437,4.665,6.78,9.184,10,13.514v-14.485H995.5z"/>
<path fill="#70655C" d="M257.5,505.452v-9.25c-3.347-0.965-6.681-1.919-10-2.86v9.392
	C250.824,503.629,254.158,504.535,257.5,505.452z"/>
<path fill="#70655C" d="M187.5,477.998c-3.371-0.722-6.705-1.403-10-2.04c-19.239-3.717-37.124-5.907-52.995-5.696
	c-1.006,0.013-2.004,0.051-3.005,0.081c-3.362,0.101-6.695,0.292-10,0.571c-21.221,1.795-41.265,7.129-60,14.314
	c-3.376,1.295-6.71,2.647-10,4.051c-47.966,20.47-86.766,51.515-114.117,62.151c-12.755,8.116,1.159,10.435,1.159,10.435
	s55.32-37.621,112.957-62.003V693h10V495.777c20.942-8.229,41.784-14.322,60-15.863V693h10V479.532
	c16.271,0.036,35.296,2.499,56,6.492V693h10V488.04c19.049,4.001,39.311,9.118,60,14.693v-9.392
	C226.724,487.449,206.528,482.075,187.5,477.998z"/>
<path fill="#70655C" d="M310.5,520.3V693h10V523.101C317.178,522.174,313.844,521.24,310.5,520.3z"/>
<path fill="#70655C" d="M320.5,523.101v-8.58c-3.332-0.946-6.666-1.902-10-2.864v8.642
	C313.844,521.24,317.178,522.174,320.5,523.101z"/>
<path fill="#70655C" d="M378.5,538.402V693h10V540.736C385.21,539.991,381.874,539.211,378.5,538.402z"/>
<path fill="#70655C" d="M388.5,540.736v-8.877c-3.316-0.706-6.649-1.44-10-2.206v8.748
	C381.874,539.211,385.21,539.991,388.5,540.736z"/>
<path fill="none" d="M1025.479,654.799V389.084c-8.918-12.104-18.479-25.201-28.237-38.605
	c-9.435-12.96-19.141-25.961-28.763-38.105v342.426"/>
<path fill="none" d="M757.479,654.799V311.09c-4.315,6.922-8.41,13.595-12.61,19.559c-11.285,16.025-28.298,37.068-48.39,59.424
	v264.725"/>
<path fill="none" d="M686.479,654.799V401.032c-17.941,19.358-37.816,39.235-58,57.339v196.428"/>
<path fill="none" d="M827.479,654.799V249.301c-11.572,3.183-21.009,7.337-26.479,11.026c-14.131,9.531-24.612,22.261-33.521,35.287
	v359.184"/>
<path fill="none" d="M890.479,654.799V246.997c-17.785-4.344-36.751-3.347-53-0.075v407.877"/>
<path fill="none" d="M141.479,654.799V459.915c-18.218,1.544-39.059,7.64-60,15.87v179.014"/>
<path fill="none" d="M958.479,654.799V300.042c-16.383-19.675-32.152-35.862-45.498-43.924c-4.005-2.419-8.194-4.412-12.502-6.038
	v404.718"/>
<path fill="none" d="M618.479,654.799V467.158c-19.132,16.42-36.687,29.055-53,38.558v149.083"/>
<path fill="none" d="M408.479,654.799V518.393c-18.394-4.412-37.963-9.709-58-15.301v151.706"/>
<path fill="none" d="M555.479,654.799V511.244c-21.976,11.436-41.68,17.06-60,18.586v124.969"/>
<path fill="none" d="M485.479,654.799V530.264c-0.168,0.001-0.338,0.007-0.506,0.007c-18.123,0-40.984-3.763-66.494-9.543v134.071"
	/>
<path fill="none" d="M277.479,654.799V482.723c-20.692-5.576-40.949-10.687-60-14.687v186.763"/>
<path fill="none" d="M340.479,654.799V500.291c-17.567-4.939-35.39-10.018-53-14.848v169.355"/>
<path fill="none" d="M207.479,654.799V466.02c-20.705-3.992-39.73-6.454-56-6.488v195.266"/>
<g>
	<g>
		<path fill="#FFFFFF" d="M75.166,659.833c4.836-19.543,7.968-58.662,8.459-65.09c-4.179-0.253-7.909-0.518-11.025-0.758
			c-0.829,7.912-3.317,29.685-7.765,52.769C58.856,677.781,32.54,717.529,25,725.167c3.932,0.37,7.853,0.69,11.707,0.961
			C50.509,716.492,70.769,677.602,75.166,659.833z"/>
		<path fill="#FFFFFF" d="M111.456,561.842c-0.778-0.304-1.514-0.661-2.212-1.055c-2.631,3.803-5.522,8.486-9.441,12.511
			c-8.28,8.501-19.963,17.075-26.886,17.536c0,0-0.007,0.072-0.017,0.176c4.052,0.309,9.128,0.66,14.819,0.97
			C95.446,586.344,106.683,569.373,111.456,561.842z"/>
		<path fill="#FFFFFF" d="M160.848,662.833c4.792,15.211,26.674,48.573,35.789,62.112c5.787-0.502,10.629-1.37,13.189-2.779
			c-6.307-6.509-35.796-45-40.793-72.833c-3.022-16.834-6.058-46.656-6.934-55.576c-2.513,0.212-5.66,0.461-9.279,0.712
			C153.295,604.068,155.639,646.3,160.848,662.833z"/>
		<path fill="#FFFFFF" d="M110.395,595.786c-3.236-0.047-6.442-0.126-9.575-0.23c-1.079,7.802-4.533,33.43-6.569,56.277
			c-2.156,24.182-21.789,66.098-26.288,75.444c6.802-0.024,12.345-0.288,15.918-0.777c1.51-0.207,2.928-0.477,4.258-0.783
			c4.553-14.395,13.31-43.058,16.265-59.55C107.946,646.393,109.943,605.82,110.395,595.786z"/>
		<path fill="#FFFFFF" d="M132.829,574.5c4.298,6.784,14.784,14.451,18.535,17.068c3.778-0.253,7.095-0.509,9.788-0.732
			c-3.259-1.587-17.309-8.869-26.511-20.669c-2.74-3.514-4.753-6.746-6.585-9.41c-0.919,0.525-1.912,0.976-2.968,1.34
			C127.005,565.209,129.852,569.801,132.829,574.5z"/>
		<path fill="#FFFFFF" d="M137.914,595.323c-4.21,0.189-8.651,0.341-13.181,0.428c0.219,10.466,1.909,47.53,5.659,69.082
			c4.126,23.706,14.234,47.399,19.472,58.621c1.744,0.366,3.953,0.738,6.705,1.046c2.317,0.259,6.43,0.551,11.395,0.759
			c-6.861-12.794-19.175-41.112-22.953-58.425C142.6,655.784,138.84,607.536,137.914,595.323z"/>
		<path fill="#FFFFFF" d="M124.055,562.415c-1.647,0.463-3.415,0.73-5.266,0.745c1.02,8.458,3.222,25.117,5.218,29.605
			c4.665-0.083,9.24-0.236,13.579-0.429c-0.654-0.92-4.177-5.917-6.381-9.837C129.986,580.333,126.141,568.793,124.055,562.415z"/>
		<path fill="#FFFFFF" d="M101.368,592.575c3.241,0.104,6.558,0.182,9.902,0.224c2.83-3.878,4.157-21.075,4.658-29.82
			c-1.263-0.166-2.478-0.439-3.62-0.821L101.368,592.575z"/>
		<path fill="#EB6262" d="M196.638,724.946c-9.115-13.539-30.997-46.901-35.789-62.112c-5.209-16.534-7.554-58.765-8.029-68.365
			c3.619-0.251,6.766-0.499,9.279-0.712c-0.162-1.654-0.251-2.59-0.251-2.59s-0.249-0.113-0.696-0.331
			c-2.693,0.223-6.011,0.479-9.788,0.732c-3.751-2.616-14.237-10.283-18.535-17.068c-2.977-4.699-5.824-9.291-7.741-12.403
			c1.056-0.364,2.05-0.816,2.968-1.34c-3.028-4.405-5.561-7.257-10.064-7.257c-3.282,0-5.859,3.112-8.747,7.287
			c0.698,0.394,1.433,0.751,2.212,1.055c-4.773,7.531-16.01,24.502-23.736,30.137c-5.692-0.31-10.767-0.661-14.819-0.97
			c-0.035,0.373-0.135,1.397-0.3,2.977c3.116,0.239,6.846,0.504,11.025,0.758c-0.492,6.428-3.623,45.547-8.459,65.09
			c-4.397,17.768-24.657,56.658-38.459,66.294c11.527,0.81,22.449,1.181,31.256,1.149c4.499-9.346,24.133-51.262,26.288-75.444
			c2.037-22.847,5.49-48.475,6.569-56.277c3.132,0.104,6.339,0.183,9.575,0.23c-0.452,10.034-2.449,50.606-5.992,70.38
			c-2.955,16.492-11.712,45.155-16.265,59.55c5.369-1.237,9.22-3.082,11.173-3.883h45.075c0,0,1.559,0.798,5.478,1.621
			c-5.238-11.222-15.347-34.915-19.472-58.621c-3.751-21.553-5.44-58.616-5.659-69.082c4.53-0.088,8.971-0.239,13.181-0.428
			c0.926,12.213,4.687,60.461,7.098,71.511c3.777,17.313,16.092,45.632,22.953,58.425
			C176.563,725.618,187.723,725.719,196.638,724.946z M111.27,592.799c-3.343-0.042-6.661-0.12-9.902-0.224l10.94-30.418
			c1.142,0.382,2.357,0.655,3.62,0.821C115.427,571.724,114.1,588.921,111.27,592.799z M124.007,592.765
			c-1.996-4.489-4.198-21.147-5.218-29.605c1.851-0.015,3.62-0.282,5.266-0.745c2.086,6.378,5.931,17.918,7.15,20.085
			c2.204,3.92,5.727,8.917,6.381,9.837C133.247,592.529,128.672,592.683,124.007,592.765z"/>
	</g>
	<path fill-rule="evenodd" clip-rule="evenodd" fill="#EB6262" d="M117.391,531c0,0,17,6.5,27.5,6.5c0,0-4,1-13.5,3s-14,2.5-14,2.5
		V531z"/>
	<path fill-rule="evenodd" clip-rule="evenodd" fill="#A68775" d="M116.913,530h2v27.5h-2V530z"/>
	<path fill-rule="evenodd" clip-rule="evenodd" fill="#A14747" d="M119.473,668.167L98.357,722.5h49.135l-14.213-24.333
		L119.473,668.167z"/>
	<g>
		<g>
			<path fill-rule="evenodd" clip-rule="evenodd" fill="#F3B0A3" d="M150.117,715.166c-3.316-2.65-4.407,0.961-11.618-8.965
				c-6.35-8.74-17.041-34.154-19.505-40.102c0.211-2.467,0.292-3.933,0.292-3.933s-6.993,21.753-9.57,27.493
				c-3.583,7.983-6.993,13.294-11.41,18.127c-4.417,4.834-8.097,5.74-13.618,5.136c3.681,4.23,0.736,12.992,0.736,12.992
				s-2.944,3.021,13.986-3.626c13.847-5.436,18.338-42.192,19.515-55.402c2.298,10.081,13.258,54.076,30,56.603
				C148.926,723.49,154.524,718.687,150.117,715.166z"/>
		</g>
	</g>
</g>
<path fill="#FFFFFF" d="M118.858,427.318c15.594,0,28.283-12.689,28.283-28.286c0-15.597-12.688-28.285-28.283-28.285h-1.502
	c0.005-0.215,0.007-0.428,0.007-0.64c0-17.587-14.308-31.896-31.895-31.896c-7.075,0-13.769,2.281-19.289,6.505
	c-2.836-4.323-6.55-8.019-10.928-10.843C49.298,330.03,42.387,328,35.27,328c-20.402,0-37,16.599-37,37.002
	c0,2.19,0.194,4.368,0.578,6.514C-13.704,374.455-23,385.787-23,399.033c0,15.596,12.689,28.286,28.286,28.286H118.858z"/>
<path fill="#FFFFFF" d="M824.51,231.303c-24.542,0-44.51-19.97-44.51-44.515s19.968-44.514,44.51-44.514h2.363
	c-0.008-0.338-0.012-0.673-0.012-1.007c0-27.678,22.517-50.196,50.194-50.196c11.134,0,21.669,3.59,30.356,10.236
	c4.463-6.803,10.309-12.62,17.197-17.063C933.981,78.195,944.857,75,956.058,75c32.107,0,58.229,26.123,58.229,58.232
	c0,3.446-0.305,6.875-0.91,10.251c19.755,4.627,34.384,22.46,34.384,43.305c0,24.545-19.97,44.515-44.516,44.515H824.51z"/>
<g>
	<path fill-rule="evenodd" clip-rule="evenodd" fill="#F7901E" d="M74.031,85.789l7.648-1.688l-5.836-6.752l-4.428,1.055
		L74.031,85.789z"/>
	<g>
		<g>
			<g>
				<path fill-rule="evenodd" clip-rule="evenodd" fill="#F47524" d="M117.126,70.443c0.065-0.24,0.11-0.487,0.11-0.745
					c0-1.698-1.499-3.075-3.349-3.075c-1.81,0-3.276,1.322-3.337,2.97l-37.927-4.904L69,67.853l28.78,6.963l-5.384,4.642
					l-7.899,2.532l-10.868,3.798c0,0,13.598-1.192,16.426-1.534c5.233-0.633,18.398-3.518,25.637-8.806
					c0,0,14.289,1.688,17.308-2.954L117.126,70.443z"/>
			</g>
		</g>
		<path fill-rule="evenodd" clip-rule="evenodd" fill="#EFC082" d="M96.438,79.986c0,0,10.566-4.044,12.075-6.33
			c1.509-2.286,0-2.286,0-2.286l-15.43,9.144L96.438,79.986z"/>
		<g>
			<g>
				<path fill-rule="evenodd" clip-rule="evenodd" d="M113.377,63v7.596h1.409V63H113.377z M113.377,80.092h1.409v-7.596h-1.409
					V80.092z M105.126,69.119l-9.057,6.33l-1.258,2.321c1.811-0.211,12.528-8.44,12.528-8.44L105.126,69.119z M108.447,79.459
					c-1.167,0-2.113,0.992-2.113,2.216s0.946,2.216,2.113,2.216c1.167,0,2.113-0.992,2.113-2.216S109.614,79.459,108.447,79.459z
					 M95.365,81.569c-1.167,0-2.113,0.992-2.113,2.216c0,1.224,0.946,2.216,2.113,2.216c1.167,0,2.113-0.992,2.113-2.216
					C97.478,82.561,96.532,81.569,95.365,81.569z"/>
			</g>
		</g>
	</g>
</g>
<path fill-rule="evenodd" clip-rule="evenodd" fill="#FAEFCA" d="M108.93,723c0,0-22.985,44.161-34.483,59.97
	C50.458,815.953-35,850.436-35,850.436l2.999,10.495c0,0,82.46-22.489,118.442-67.466c11.921-14.901,34.483-68.965,34.483-68.965
	L108.93,723z"/>
</svg>
