<?xml version="1.0" encoding="utf-8"?>
<!-- Generator: Adobe Illustrator 17.0.0, SVG Export Plug-In . SVG Version: 6.00 Build 0)  -->
<!DOCTYPE svg PUBLIC "-//W3C//DTD SVG 1.1//EN" "http://www.w3.org/Graphics/SVG/1.1/DTD/svg11.dtd">
<svg version="1.1" id="Layer_1" xmlns="http://www.w3.org/2000/svg" xmlns:xlink="http://www.w3.org/1999/xlink" x="0px" y="0px"
	 width="40.025px" height="267.905px" viewBox="0 0 40.025 267.905" enable-background="new 0 0 40.025 267.905"
	 xml:space="preserve">
<g>
	<path fill-rule="evenodd" clip-rule="evenodd" fill="#F7F4BE" d="M4.531,28.306l5.79,35.746l15.859,0.755l9.062-37.004
		L4.531,28.306z"/>
	<path fill-rule="evenodd" clip-rule="evenodd" fill="#392B13" d="M15.111,82.758l0.126,120.578l-3.818,3.65v8.685H7.097v52.234
		h24.124v-52.192h-4.363v-8.391l-3.776-3.86L22.83,82.507h4.363v-4.028h-4.028v-8.097l6.713-6.713H6.72l8.391,7.384v7.384h-4.028
		L10.705,82.8L15.111,82.758z"/>
	<path fill-rule="evenodd" clip-rule="evenodd" fill="#392B13" d="M0,27.816h40.025v-4.028l-16.111-11.58h4.153V8.055h-3.902V0
		h-8.055v8.055h-4.028v3.776h4.154L0,24.166V27.816z"/>
</g>
</svg>
