<?xml version="1.0" encoding="utf-8"?>
<!-- Generator: Adobe Illustrator 17.0.0, SVG Export Plug-In . SVG Version: 6.00 Build 0)  -->
<!DOCTYPE svg PUBLIC "-//W3C//DTD SVG 1.1//EN" "http://www.w3.org/Graphics/SVG/1.1/DTD/svg11.dtd">
<svg version="1.1" id="Layer_1" xmlns="http://www.w3.org/2000/svg" xmlns:xlink="http://www.w3.org/1999/xlink" x="0px" y="0px"
	 width="1025px" height="198.459px" viewBox="-0.5 0 1025 198.459" enable-background="new -0.5 0 1025 198.459"
	 xml:space="preserve">
<rect x="-0.5" y="0" fill="#C1DC88" width="1026" height="198.459"/>
<path fill="#FAEFCA" d="M-0.5,0.189C30.787,27.168,82.688,65.931,146.555,91c141.672,55.608,301.392,73.64,558.36,89.562
	c140.608,8.712,260.992,8.383,320.586,7.4V0H-0.5V0.189z"/>
<path fill="#A68775" d="M1025.5,97.393C911.416,117.19,547.121,131.655,412.369,123C272.244,114,130.266,77.088,24.022,16
	c-6.966-4.006-13.854-8.187-20.6-12.459C35.032,30.301,85.291,66.953,146.555,91c141.672,55.608,301.392,73.64,558.36,89.562
	c140.608,8.712,260.992,8.383,320.586,7.4V97.393z"/>
</svg>
