<?xml version="1.0" encoding="utf-8"?>
<!-- Generator: Adobe Illustrator 17.0.0, SVG Export Plug-In . SVG Version: 6.00 Build 0)  -->
<!DOCTYPE svg PUBLIC "-//W3C//DTD SVG 1.1//EN" "http://www.w3.org/Graphics/SVG/1.1/DTD/svg11.dtd">
<svg version="1.1" id="Layer_1" xmlns="http://www.w3.org/2000/svg" xmlns:xlink="http://www.w3.org/1999/xlink" x="0px" y="0px"
	 width="810.903px" height="37.668px" viewBox="0 0 810.903 37.668" enable-background="new 0 0 810.903 37.668"
	 xml:space="preserve">
<path fill="#91973E" d="M810.902,24.836l-6.169,2.01c0,0,2.556-3.376,2.394-6.149c-0.046-0.783-4.135,2.708-3.941-0.323
	c0.188-2.943-1.964-6.998-1.964-6.998l-2.903,7.784l-4.305-8.12l-9.449,5.016L791.736,0c0,0-14.474,11.26-14.944,14.081
	l-9.439-11.144l0.895,15.326l-10.56-6.219l1.486,9.698c0,0-5.987-4.318-9.749-5.729c1.342,3.006,0.997,7.8,0.997,7.8
	s-4.882,3.377-12.724,2.784c-5.985-0.453-15.438-4.914-15.438-4.914s4.869,5.028,3.736,7.829c-0.021,0.053-0.054,0.104-0.077,0.157
	H0v8h805v-0.187l1.814-0.003c0,0-1.958-2.824,1.302-6.158C811.04,28.332,810.902,24.836,810.902,24.836z"/>
</svg>
