<?xml version="1.0" encoding="utf-8"?>
<!-- Generator: Adobe Illustrator 17.0.0, SVG Export Plug-In . SVG Version: 6.00 Build 0)  -->
<!DOCTYPE svg PUBLIC "-//W3C//DTD SVG 1.1//EN" "http://www.w3.org/Graphics/SVG/1.1/DTD/svg11.dtd">
<svg version="1.1" id="Layer_1" xmlns="http://www.w3.org/2000/svg" xmlns:xlink="http://www.w3.org/1999/xlink" x="0px" y="0px"
	 width="150.519px" height="205.137px" viewBox="0 0 150.519 205.137" enable-background="new 0 0 150.519 205.137"
	 xml:space="preserve">
<g id="atGFD5_1_" display="none">
	<image display="inline" overflow="visible" width="150" height="205" id="atGFD5_2_" xlink:href="EBAED5EA872E782C.jpg" >
	</image>
</g>
<path fill-rule="evenodd" clip-rule="evenodd" fill="#E9E8ED" d="M99.919,169.492c-6.249-2.205-15.438,1.838-18.379,2.206
	c-2.941,0.368-14.335,1.103-14.335,6.249c0,5.146-2.205,14.335,2.573,15.806c4.779,1.47,15.806,9.925,22.054,8.822
	c6.249-1.103,22.422-2.573,23.525-6.984c1.103-4.411,2.941-12.13,1.103-15.438C114.622,176.844,106.168,171.698,99.919,169.492z"/>
<path fill-rule="evenodd" clip-rule="evenodd" fill="#B6B6B3" d="M115.358,195.59c0.881-3.522,2.224-9.149,1.796-12.959
	c-7.064-1.955-13.246-1.284-16.416-0.333c-3.676,1.103-6.616,5.514-28.671-5.513c-1.095-0.548-2.712-0.59-4.528-0.266
	c-0.213,0.434-0.334,0.908-0.334,1.428c0,5.146-2.205,14.336,2.573,15.806c4.779,1.47,15.806,9.925,22.054,8.822
	C98.082,201.471,114.255,200.001,115.358,195.59z"/>
<path fill-rule="evenodd" clip-rule="evenodd" fill="#E9E8ED" d="M57.019,178.587c5-1.765,12.353,1.471,14.706,1.765
	c2.353,0.294,11.471,0.882,11.471,5c0,4.118,1.765,11.471-2.059,12.647c-3.824,1.176-12.647,7.941-17.647,7.059
	c-5-0.882-17.941-2.059-18.824-5.588c-0.882-3.53-2.353-9.706-0.882-12.353C45.254,184.469,52.019,180.352,57.019,178.587z"/>
<path fill-rule="evenodd" clip-rule="evenodd" fill="#B6B6B3" d="M82.318,197.291c-3.379-2.068-6.459-3.563-7.956-3.682
	c-3.061-0.245-9.46,4.838-13.724,4.44c-4.264-0.398-10.735-3.234-11.072,1.685c-0.057,0.824,0.442,1.908,1.296,3.137
	c4.313,1.082,9.768,1.684,12.628,2.188c5,0.882,13.824-5.882,17.647-7.059C81.612,197.852,82.001,197.61,82.318,197.291z"/>
<path fill-rule="evenodd" clip-rule="evenodd" fill="#855E31" d="M77.744,0.009h6.972l-5.363,175.376h-6.972L77.744,0.009z"/>
<path fill-rule="evenodd" clip-rule="evenodd" fill="#D2A46F" d="M123.343,61.416L22.102,61.79c0,0-20.983,12.967-20.969,16.787
	c0.02,5.376,21.588,18.351,21.588,18.351l100.752-0.372L123.343,61.416z"/>
<path fill-rule="evenodd" clip-rule="evenodd" fill="#DEAF75" d="M27.121,21.852l100.567-11.665c0,0,22.376,10.381,22.816,14.175
	c0.619,5.34-19.253,20.787-19.253,20.787L31.17,56.758L27.121,21.852z"/>
<g>
	<path fill="#4A260F" d="M64.023,36.24l1.521-9.639l2.012-0.254l1.932,15.278l-1.368,0.173l-1.576-12.463l-0.021,0.003l-1.365,8.355
		l-1.97,0.249l-3.377-7.712l1.57,12.419l-1.368,0.173L58.08,27.545l2.032-0.257l3.829,8.962L64.023,36.24z"/>
	<path fill="#4A260F" d="M72.968,41.163l-1.41,0.178l1.386-15.698l1.97-0.249l5.249,14.859l-1.39,0.176l-1.438-4.054l-4.003,0.506
		L72.968,41.163z M74.175,27.218l-0.021,0.003c-0.108,1.359-0.217,2.699-0.322,4.021c-0.107,1.322-0.216,2.662-0.325,4.021
		l3.256-0.412L74.175,27.218z"/>
	<path fill="#4A260F" d="M90.513,38.968l-1.411,0.178l-3.311-5.857c-0.108,0.028-0.225,0.054-0.348,0.077
		c-0.124,0.023-0.24,0.042-0.352,0.055l-2.28,0.288l0.775,6.134l-1.369,0.173l-1.847-14.602c0.367-0.209,0.75-0.405,1.147-0.589
		c0.346-0.162,0.726-0.316,1.143-0.466c0.416-0.148,0.84-0.25,1.268-0.305c0.581-0.073,1.146-0.045,1.696,0.085
		c0.55,0.13,1.05,0.363,1.499,0.698c0.45,0.335,0.831,0.76,1.142,1.275c0.311,0.516,0.511,1.122,0.599,1.82
		c0.061,0.48,0.064,0.957,0.012,1.429c-0.053,0.473-0.154,0.921-0.304,1.347c-0.15,0.426-0.348,0.809-0.592,1.15
		c-0.244,0.341-0.521,0.621-0.832,0.837L90.513,38.968z M83.959,25.626c-0.222,0.028-0.453,0.083-0.696,0.166
		c-0.241,0.083-0.463,0.166-0.663,0.25c-0.239,0.104-0.472,0.215-0.695,0.332l0.731,5.784l2.115-0.267
		c0.939-0.119,1.656-0.505,2.149-1.159c0.494-0.653,0.67-1.526,0.532-2.617c-0.066-0.524-0.198-0.962-0.397-1.314
		c-0.199-0.352-0.45-0.623-0.756-0.813c-0.305-0.19-0.654-0.312-1.047-0.366S84.415,25.568,83.959,25.626z"/>
	<path fill="#4A260F" d="M93.322,34.377c0.055,0.437,0.174,0.82,0.357,1.152c0.183,0.332,0.405,0.606,0.672,0.824
		s0.563,0.375,0.893,0.475c0.328,0.099,0.659,0.134,0.994,0.107c0.096-0.012,0.191-0.032,0.286-0.059
		c0.096-0.027,0.213-0.075,0.351-0.144c0.14-0.069,0.314-0.162,0.523-0.277c0.21-0.115,0.479-0.267,0.806-0.457l0.626-0.39
		l0.75,1.435l-1.719,0.905c-0.224,0.117-0.47,0.222-0.74,0.315c-0.269,0.093-0.5,0.152-0.692,0.176
		c-0.526,0.067-1.04,0.032-1.541-0.105c-0.502-0.136-0.956-0.367-1.362-0.692c-0.407-0.325-0.747-0.741-1.021-1.246
		c-0.273-0.504-0.452-1.085-0.535-1.739l-0.875-6.919c-0.075-0.596-0.044-1.181,0.095-1.753c0.138-0.571,0.313-1.019,0.524-1.342
		c0.188-0.304,0.356-0.54,0.512-0.707c0.154-0.167,0.314-0.321,0.479-0.46l0.1-0.057l-0.061,0.03
		c0.141-0.106,0.346-0.24,0.614-0.399c0.267-0.16,0.643-0.27,1.126-0.331c0.208-0.026,0.454-0.02,0.739,0.018
		c0.286,0.038,0.538,0.08,0.754,0.126l1.829,0.479l-0.297,1.479L95.504,24.3c-0.146-0.041-0.291-0.074-0.435-0.1
		c-0.144-0.026-0.271-0.032-0.381-0.019c-0.346,0.044-0.663,0.172-0.952,0.386c-0.289,0.214-0.533,0.478-0.731,0.791
		c-0.199,0.314-0.347,0.661-0.438,1.042c-0.092,0.381-0.113,0.769-0.063,1.162L93.322,34.377z"/>
	<path fill="#4A260F" d="M101.373,22.072l0.858,6.788l4.666-0.59l-0.858-6.788l1.452-0.184l1.929,15.256l-1.452,0.184l-0.875-6.919
		l-4.666,0.59l0.875,6.919l-1.43,0.181l-1.929-15.256L101.373,22.072z"/>
</g>
<g>
	<path fill="#4A260F" d="M30.182,71.764c0.878-0.381,1.602-0.627,2.173-0.737s0.955-0.165,1.15-0.165
		c0.557,0,1.068,0.121,1.536,0.363c0.466,0.242,0.874,0.572,1.223,0.99c0.348,0.418,0.619,0.898,0.814,1.441
		c0.195,0.543,0.293,1.122,0.293,1.738v6.952c0,0.616-0.112,1.192-0.335,1.727c-0.223,0.536-0.522,0.998-0.898,1.386
		s-0.812,0.693-1.306,0.913c-0.495,0.22-1.014,0.33-1.558,0.33c-0.111,0-0.244-0.008-0.396-0.022
		c-0.154-0.015-0.353-0.048-0.596-0.099c-0.244-0.052-0.537-0.132-0.878-0.242c-0.342-0.11-0.749-0.268-1.223-0.473V71.764z
		 M35.846,75.394c0-0.616-0.133-1.155-0.397-1.617s-0.551-0.803-0.857-1.023c-0.153-0.117-0.334-0.201-0.543-0.253
		c-0.209-0.051-0.391-0.077-0.543-0.077c-0.293,0-0.61,0.062-0.951,0.187c-0.342,0.125-0.658,0.253-0.951,0.385v11.682
		c0.487,0.206,0.867,0.33,1.139,0.374c0.272,0.044,0.478,0.066,0.617,0.066h0.083c0.32,0,0.627-0.081,0.92-0.242
		c0.293-0.161,0.554-0.381,0.784-0.66c0.229-0.278,0.41-0.594,0.543-0.946c0.132-0.352,0.198-0.726,0.198-1.122L35.846,75.394z"/>
	<path fill="#4A260F" d="M46.357,71.082v1.54h-4.619v5.346h3.616v1.54h-3.616v5.39h4.661v1.562h-6.103V71.082H46.357z"/>
	<path fill="#4A260F" d="M49.994,82.28c0,0.44,0.069,0.836,0.209,1.188s0.327,0.653,0.564,0.902s0.512,0.443,0.825,0.583
		c0.313,0.139,0.638,0.216,0.973,0.231c0.097,0,0.194-0.007,0.292-0.022s0.22-0.048,0.366-0.099s0.331-0.121,0.554-0.209
		s0.509-0.205,0.856-0.352l0.669-0.308l0.564,1.518l-1.818,0.682c-0.237,0.088-0.494,0.161-0.773,0.22
		c-0.278,0.059-0.516,0.088-0.71,0.088c-0.53,0-1.035-0.099-1.516-0.297c-0.48-0.198-0.902-0.484-1.265-0.858
		s-0.647-0.829-0.856-1.364s-0.313-1.133-0.313-1.793v-6.974c0-0.601,0.104-1.177,0.313-1.727s0.438-0.972,0.689-1.265
		c0.223-0.278,0.421-0.491,0.596-0.638c0.174-0.146,0.352-0.279,0.533-0.396l0.104-0.044l-0.063,0.022
		c0.153-0.088,0.373-0.194,0.659-0.319c0.285-0.125,0.672-0.187,1.159-0.187c0.209,0,0.453,0.037,0.731,0.11
		c0.279,0.073,0.523,0.146,0.732,0.22l1.755,0.704l-0.48,1.43l-1.923-0.77c-0.14-0.059-0.279-0.11-0.418-0.154
		c-0.14-0.044-0.265-0.066-0.376-0.066c-0.349,0-0.68,0.088-0.993,0.264c-0.313,0.176-0.589,0.407-0.825,0.693
		c-0.237,0.286-0.426,0.612-0.564,0.979c-0.14,0.367-0.209,0.748-0.209,1.144L49.994,82.28z"/>
	<path fill="#4A260F" d="M64.144,71.082v1.54h-4.619v5.346h3.616v1.54h-3.616v5.39h4.661v1.562h-6.103V71.082H64.144z"/>
	<path fill="#4A260F" d="M71.458,80.454l2.717-9.372h2.027v15.4h-1.379V73.92h-0.021l-2.403,8.118h-1.985l-2.383-8.074v12.518
		h-1.379v-15.4h2.048l2.675,9.372H71.458z"/>
	<path fill="#4A260F" d="M82.828,70.862c0.46,0,0.812,0.055,1.056,0.165c0.243,0.11,0.414,0.202,0.512,0.275l0.021,0.022
		c0.502,0.323,0.94,0.818,1.317,1.485c0.376,0.667,0.563,1.426,0.563,2.277c0,0.323-0.01,0.642-0.031,0.957
		c-0.021,0.315-0.073,0.624-0.156,0.924c-0.084,0.301-0.206,0.594-0.366,0.88c-0.16,0.286-0.38,0.554-0.658,0.803
		c0.362,0.264,0.651,0.536,0.867,0.814c0.216,0.279,0.38,0.565,0.491,0.858c0.111,0.294,0.185,0.598,0.22,0.913
		c0.034,0.315,0.052,0.649,0.052,1.001c0.015,0.455-0.024,0.873-0.114,1.254c-0.091,0.382-0.199,0.715-0.324,1.001
		c-0.125,0.286-0.251,0.517-0.376,0.693c-0.126,0.176-0.217,0.286-0.271,0.33c-0.251,0.25-0.564,0.473-0.94,0.671
		c-0.377,0.198-0.857,0.297-1.442,0.297h-3.888v-14.74c0.544-0.22,1.024-0.392,1.442-0.517s0.71-0.202,0.878-0.231
		C82.055,70.906,82.438,70.862,82.828,70.862z M84.751,75.174c-0.028-0.352-0.088-0.693-0.178-1.023
		c-0.091-0.33-0.224-0.623-0.397-0.88c-0.174-0.256-0.387-0.462-0.638-0.616c-0.25-0.154-0.543-0.231-0.877-0.231
		c-0.14,0-0.353,0.022-0.638,0.066c-0.286,0.044-0.693,0.184-1.223,0.418v4.972h1.965c0.39,0,0.71-0.073,0.961-0.22
		s0.453-0.341,0.606-0.583c0.153-0.242,0.261-0.528,0.323-0.858C84.72,75.889,84.751,75.541,84.751,75.174z M80.801,79.42v5.5h2.445
		c0.376,0,0.692-0.069,0.951-0.209c0.257-0.139,0.463-0.33,0.616-0.572c0.153-0.242,0.261-0.528,0.324-0.858
		c0.062-0.33,0.094-0.678,0.094-1.045c0-0.381-0.031-0.744-0.094-1.089c-0.063-0.344-0.171-0.645-0.324-0.902
		s-0.359-0.458-0.616-0.605c-0.259-0.146-0.575-0.22-0.951-0.22H80.801z"/>
	<path fill="#4A260F" d="M95.389,71.082v1.54H90.77v5.346h3.616v1.54H90.77v5.39h4.661v1.562h-6.103V71.082H95.389z"/>
	<path fill="#4A260F" d="M106.235,86.482h-1.422l-2.55-6.226c-0.111,0.015-0.229,0.026-0.354,0.033
		c-0.126,0.007-0.244,0.011-0.355,0.011h-2.299v6.182h-1.38V71.764c0.39-0.162,0.794-0.308,1.212-0.44
		c0.362-0.117,0.76-0.223,1.191-0.319c0.432-0.095,0.864-0.143,1.296-0.143c0.585,0,1.143,0.099,1.672,0.297
		c0.529,0.198,0.996,0.492,1.4,0.88s0.729,0.858,0.972,1.408c0.244,0.55,0.366,1.177,0.366,1.881c0,0.484-0.056,0.957-0.167,1.419
		c-0.112,0.462-0.269,0.895-0.471,1.298c-0.202,0.404-0.446,0.759-0.731,1.067s-0.596,0.55-0.93,0.726L106.235,86.482z
		 M101.407,72.424c-0.223,0-0.46,0.026-0.711,0.077c-0.25,0.052-0.48,0.106-0.689,0.165c-0.251,0.073-0.495,0.154-0.731,0.242v5.83
		h2.132c0.947,0,1.707-0.293,2.278-0.88c0.571-0.586,0.856-1.43,0.856-2.53c0-0.528-0.076-0.979-0.229-1.353
		s-0.369-0.675-0.648-0.902c-0.278-0.227-0.609-0.392-0.992-0.495C102.288,72.476,101.867,72.424,101.407,72.424z"/>
</g>
</svg>
