<?xml version="1.0" encoding="utf-8"?>
<!-- Generator: Adobe Illustrator 17.0.0, SVG Export Plug-In . SVG Version: 6.00 Build 0)  -->
<!DOCTYPE svg PUBLIC "-//W3C//DTD SVG 1.1//EN" "http://www.w3.org/Graphics/SVG/1.1/DTD/svg11.dtd">
<svg version="1.1" id="Layer_1" xmlns="http://www.w3.org/2000/svg" xmlns:xlink="http://www.w3.org/1999/xlink" x="0px" y="0px"
	 width="1060.447px" height="560.972px" viewBox="0 0 1060.447 560.972" enable-background="new 0 0 1060.447 560.972"
	 xml:space="preserve">
<path fill-rule="evenodd" clip-rule="evenodd" fill="#FAEFCA" d="M1060.447,528.973c-77.1,7.307-335.185,28.554-490.337,2.268
	c-133.319-22.587-206.369-113.693-220.392-137.938c-34.134-59.013-30.283-111.569-50.975-149.925
	C245.776,145.196,123.793,72.636,91.056,54.438c0.26-0.317,0.525-0.63,0.78-0.949c7.808-9.76,20.182-36.323,27.79-53.489h-14.356
	C97.56,14.201,86.674,33.602,79.843,42.994C65.087,63.283,27.076,84.137,0,97.185v14.81c24.207-9.233,59.67-25.602,83.347-49.109
	c31.046,18.146,128.286,79.078,140.433,137.012c36.601,174.563-24.032,220.266-86.958,259.357
	C97.483,483.695,29.663,504.974,0,513.615v47.356h1060.447V528.973z"/>
</svg>
